<svg xmlns="http://www.w3.org/2000/svg" width="512" height="512" viewBox="0 0 256 256">
  <title>轻笺</title>
  <defs>
    <linearGradient id="app-background" x1="24" y1="16" x2="236" y2="244" gradientUnits="userSpaceOnUse">
      <stop stop-color="#ffffff"/>
      <stop offset="1" stop-color="#eeecff"/>
    </linearGradient>
  </defs>
  <rect width="256" height="256" fill="url(#app-background)"/>
  <g transform="translate(128 128) scale(.84) translate(-128 -128)">
    <path d="M132 24h48c28.72 0 52 23.28 52 52v48h-48l-52-52V24z" fill="#8079f8"/>
    <path d="M132 24h48c28.72 0 52 23.28 52 52v48h-48l-52-52V24z" fill="#655eed" transform="rotate(90 128 128)"/>
    <path d="M132 24h48c28.72 0 52 23.28 52 52v48h-48l-52-52V24z" fill="#5047d5" transform="rotate(180 128 128)"/>
    <path d="M132 24h48c28.72 0 52 23.28 52 52v48h-48l-52-52V24z" fill="#a09bfc" transform="rotate(270 128 128)"/>
  </g>
</svg>
